<?xml version="1.0" encoding="UTF-8" standalone="no"?>
<!-- Created with Inkscape (http://www.inkscape.org/) -->

<svg
   xmlns:dc="http://purl.org/dc/elements/1.1/"
   xmlns:cc="http://creativecommons.org/ns#"
   xmlns:rdf="http://www.w3.org/1999/02/22-rdf-syntax-ns#"
   xmlns:svg="http://www.w3.org/2000/svg"
   xmlns="http://www.w3.org/2000/svg"
   xmlns:xlink="http://www.w3.org/1999/xlink"
   xmlns:sodipodi="http://sodipodi.sourceforge.net/DTD/sodipodi-0.dtd"
   xmlns:inkscape="http://www.inkscape.org/namespaces/inkscape"
   width="64"
   height="64"
   id="svg2"
   sodipodi:version="0.32"
   inkscape:version="0.48.1 r9760"
   version="1.0"
   sodipodi:docname="action-rocsaligncircle.svg"
   inkscape:output_extension="org.inkscape.output.svg.inkscape"
   inkscape:export-filename="/home/phoenixx/KDE-dev/ROCS-source/graphics/hi16-action-rocsaligncircle.png"
   inkscape:export-xdpi="22.5"
   inkscape:export-ydpi="22.5">
  <defs
     id="defs4">
    <linearGradient
       id="linearGradient3360">
      <stop
         style="stop-color:#ff7537;stop-opacity:1;"
         offset="0"
         id="stop3362" />
      <stop
         style="stop-color:#fd4237;stop-opacity:1;"
         offset="1"
         id="stop3364" />
    </linearGradient>
    <inkscape:perspective
       sodipodi:type="inkscape:persp3d"
       inkscape:vp_x="0 : 526.18109 : 1"
       inkscape:vp_y="0 : 1000 : 0"
       inkscape:vp_z="744.09448 : 526.18109 : 1"
       inkscape:persp3d-origin="372.04724 : 350.78739 : 1"
       id="perspective10" />
    <radialGradient
       inkscape:collect="always"
       xlink:href="#linearGradient3360"
       id="radialGradient3368"
       cx="4.8743443"
       cy="8.912056"
       fx="4.8743443"
       fy="8.912056"
       r="7.7348814"
       gradientTransform="matrix(3.9732001,0,0,3.9738579,0.2895856,0.237825)"
       gradientUnits="userSpaceOnUse" />
  </defs>
  <sodipodi:namedview
     id="base"
     pagecolor="#ffffff"
     bordercolor="#666666"
     borderopacity="1.0"
     gridtolerance="10000"
     guidetolerance="10"
     objecttolerance="10"
     inkscape:pageopacity="0.0"
     inkscape:pageshadow="2"
     inkscape:zoom="12.40625"
     inkscape:cx="32"
     inkscape:cy="33.50148"
     inkscape:document-units="px"
     inkscape:current-layer="layer1"
     showgrid="false"
     inkscape:window-width="1680"
     inkscape:window-height="1030"
     inkscape:window-x="1397"
     inkscape:window-y="-3"
     inkscape:window-maximized="1" />
  <metadata
     id="metadata7">
    <rdf:RDF>
      <cc:Work
         rdf:about="">
        <dc:format>image/svg+xml</dc:format>
        <dc:type
           rdf:resource="http://purl.org/dc/dcmitype/StillImage" />
        <dc:title></dc:title>
      </cc:Work>
    </rdf:RDF>
  </metadata>
  <g
     inkscape:label="Layer 1"
     inkscape:groupmode="layer"
     id="layer1">
    <path
       sodipodi:type="arc"
       style="fill:#414237;fill-opacity:0.93364928;stroke:none;stroke-width:0.90700001;stroke-linecap:round;stroke-linejoin:round;stroke-miterlimit:4;stroke-dasharray:2.721, 2.721;stroke-dashoffset:0;stroke-opacity:1"
       id="path3432"
       sodipodi:cx="-183.5"
       sodipodi:cy="-4.5"
       sodipodi:rx="9.5"
       sodipodi:ry="9.5"
       d="M -174,-4.5 A 9.5,9.5 0 1 1 -193,-4.5 A 9.5,9.5 0 1 1 -174,-4.5 z"
       transform="matrix(0,0.571683,0.571683,0,34.45197,111.50457)" />
    <path
       sodipodi:type="arc"
       style="fill:#414237;fill-opacity:0.93364928;stroke:none"
       id="path3434"
       sodipodi:cx="-183.5"
       sodipodi:cy="-4.5"
       sodipodi:rx="9.5"
       sodipodi:ry="9.5"
       d="m -174,-4.5 a 9.5,9.5 0 1 1 -19,0 9.5,9.5 0 1 1 19,0 z"
       transform="matrix(0,0.571683,0.571683,0,15.671113,117.47812)" />
    <path
       sodipodi:type="arc"
       style="fill:#414237;fill-opacity:0.93364928;stroke:none"
       id="path3434-4"
       sodipodi:cx="-183.5"
       sodipodi:cy="-4.5"
       sodipodi:rx="9.5"
       sodipodi:ry="9.5"
       d="m -174,-4.5 a 9.5,9.5 0 1 1 -19,0 9.5,9.5 0 1 1 19,0 z"
       transform="matrix(0,0.571683,0.571683,0,52.869802,118.04237)" />
    <path
       sodipodi:type="arc"
       style="fill:#414237;fill-opacity:0.93364928;stroke:none"
       id="path3434-9"
       sodipodi:cx="-183.5"
       sodipodi:cy="-4.5"
       sodipodi:rx="9.5"
       sodipodi:ry="9.5"
       d="m -174,-4.5 a 9.5,9.5 0 1 1 -19,0 9.5,9.5 0 1 1 19,0 z"
       transform="matrix(0,0.571683,0.571683,0,60.366025,136.4202)" />
    <path
       sodipodi:type="arc"
       style="fill:#414237;fill-opacity:0.93364928;stroke:none"
       id="path3434-0"
       sodipodi:cx="-183.5"
       sodipodi:cy="-4.5"
       sodipodi:rx="9.5"
       sodipodi:ry="9.5"
       d="m -174,-4.5 a 9.5,9.5 0 1 1 -19,0 9.5,9.5 0 1 1 19,0 z"
       transform="matrix(0,0.571683,0.571683,0,53.514639,154.71743)" />
    <path
       sodipodi:type="arc"
       style="fill:#414237;fill-opacity:0.93364928;stroke:none"
       id="path3434-91"
       sodipodi:cx="-183.5"
       sodipodi:cy="-4.5"
       sodipodi:rx="9.5"
       sodipodi:ry="9.5"
       d="m -174,-4.5 a 9.5,9.5 0 1 1 -19,0 9.5,9.5 0 1 1 19,0 z"
       transform="matrix(0,0.571683,0.571683,0,35.21741,162.9391)" />
    <path
       sodipodi:type="arc"
       style="fill:#414237;fill-opacity:0.93364928;stroke:none"
       id="path3434-7"
       sodipodi:cx="-183.5"
       sodipodi:cy="-4.5"
       sodipodi:rx="9.5"
       sodipodi:ry="9.5"
       d="m -174,-4.5 a 9.5,9.5 0 1 1 -19,0 9.5,9.5 0 1 1 19,0 z"
       transform="matrix(0,0.571683,0.571683,0,16.839576,155.9265)" />
    <path
       sodipodi:type="arc"
       style="fill:#414237;fill-opacity:0.93364928;stroke:none"
       id="path3434-71"
       sodipodi:cx="-183.5"
       sodipodi:cy="-4.5"
       sodipodi:rx="9.5"
       sodipodi:ry="9.5"
       d="m -174,-4.5 a 9.5,9.5 0 1 1 -19,0 9.5,9.5 0 1 1 19,0 z"
       transform="matrix(0,0.571683,0.571683,0,8.3760995,136.01718)" />
  </g>
</svg>
