<?xml version="1.0" encoding="utf-8"?>
<!-- Generator: Adobe Illustrator 13.0.2, SVG Export Plug-In . SVG Version: 6.00 Build 14948)  -->
<!DOCTYPE svg PUBLIC "-//W3C//DTD SVG 1.1//EN" "http://www.w3.org/Graphics/SVG/1.1/DTD/svg11.dtd">
<svg version="1.1" id="Layer_1" xmlns="http://www.w3.org/2000/svg" xmlns:xlink="http://www.w3.org/1999/xlink" x="0px" y="0px"
	 width="57.571px" height="57.982px" viewBox="0 0 57.571 57.982" enable-background="new 0 0 57.571 57.982" xml:space="preserve">
<g>
	<g>
		<path fill="none" d="M4.08,57.543c-2.295-14.532-2.295-33.655,6.884-45.893c9.178-10.708,16.827-13.002,22.181,0
			c2.295,6.884,0.766,30.595,13.003,31.36c12.237,0.765,9.179-28.301,9.179-35.184"/>
		<g>
			<path fill="#202020" d="M28.596,26.942c1.551,5.283,2.797,11.193,8.108,16.695c2.859,2.745,7.045,4.221,11.09,3.459
				c4.443-0.678,7.279-4.515,8.211-7.345c3.337-11.71,0.479-21.638-0.68-31.924c-0.861,10.006-1.035,21.381-5.398,28.99
				c-4.442,5.762-8.137-2.079-7.986-11.921l-3.893,0.597c-0.581-3.682-0.858-7.405-1.485-11.408
				c-0.642-4.421-2.768-8.299-6.14-11.647C26.5-1.572,19.47-0.006,16.494,2.633c-3.579,2.625-6.256,5.149-8.747,8.875
				c-9.033,14.291-8.609,31.226-6.445,46.474l5.556-0.877c-2.164-14.491-2.129-30.538,5.555-42.454
				c3.613-5.233,10.934-11.764,14.334-7.957c4.831,4.135,4.536,11.699,5.742,19.651L28.596,26.942z"/>
		</g>
	</g>
</g>
</svg>

