<?xml version="1.0" encoding="utf-8"?>
<!-- Generator: Adobe Illustrator 13.0.2, SVG Export Plug-In . SVG Version: 6.00 Build 14948)  -->
<!DOCTYPE svg PUBLIC "-//W3C//DTD SVG 1.1//EN" "http://www.w3.org/Graphics/SVG/1.1/DTD/svg11.dtd">
<svg version="1.1" id="Layer_1" xmlns="http://www.w3.org/2000/svg" xmlns:xlink="http://www.w3.org/1999/xlink" x="0px" y="0px"
	 width="45.958px" height="61.07px" viewBox="0 0 45.958 61.07" enable-background="new 0 0 45.958 61.07" xml:space="preserve">
<g>
	<g>
		<path fill="none" d="M5.592,54.269c0-12.012-2.73-37.127,13.649-33.304c4.367,1.091,12.012,7.643,16.926,4.914
			c4.913-2.73,3.821-13.649,4.367-19.109"/>
		<path d="M11,51.267c-0.028-6.125-0.535-12.319,0.15-18.423c0.146-1.3,0.309-2.715,0.676-3.967
			c0.306-1.042,1.157-2.121-0.016-0.921c1.171-1.197,4.686-0.22,6.445,0.597c7.161,3.323,16.025,8.506,22.1,0.027
			c5.479-7.647,4.87-15.893,5.588-24.813c0.268-3.326-2.906-4.628-5.512-3.182c-3.322,1.845-5.011,5.557-5.303,9.186
			c-0.272,3.378-0.124,6.783-0.555,10.148c-0.085,0.548-0.183,1.095-0.292,1.638c0.716-2.36,3.097-1.711,0.363-2.003
			c-1.979-0.211-3.937-1.441-5.674-2.331c-6.414-3.284-13.375-5.46-19.529-0.203c-11.388,9.729-9.318,26.877-9.256,40.25
			c0.015,3.244,2.714,4.735,5.511,3.182C8.822,58.717,11.016,54.821,11,51.267L11,51.267z"/>
	</g>
</g>
</svg>

