<?xml version="1.0" encoding="utf-8"?>
<!-- Generator: Adobe Illustrator 13.0.2, SVG Export Plug-In . SVG Version: 6.00 Build 14948)  -->
<!DOCTYPE svg PUBLIC "-//W3C//DTD SVG 1.1//EN" "http://www.w3.org/Graphics/SVG/1.1/DTD/svg11.dtd">
<svg version="1.1" id="Layer_1" xmlns="http://www.w3.org/2000/svg" xmlns:xlink="http://www.w3.org/1999/xlink" x="0px" y="0px"
	 width="54.412px" height="55.22px" viewBox="0 0 54.412 55.22" enable-background="new 0 0 54.412 55.22" xml:space="preserve">
<g>
	<g>
		<path fill="none" d="M6.584,54.922c0.509-9.165,0.509-18.838,1.018-28.002C8.11,22.338,6.584,11.138,8.62,7.574
			c2.037-4.074,5.6-5.6,10.692-3.054c6.108,4.072,5.6,13.745,6.618,20.364c1.019,7.637-1.527,25.457,10.183,26.983
			c13.235,1.526,13.235-13.238,13.746-21.892c0.509-7.129,2.036-13.237,2.036-20.365"/>
		<g>
			<g>
				<path fill="#202020" d="M15.105,17.349c-0.107-0.082-1.114,4.021-3.139,11.106c-1.9,6.438-4.096,15.546-5.25,25.558
					c0.003,0.001-0.17,2.433-0.199-0.01C6.093,43.935,4.561,34.79,3.142,27.993C1.81,21.848-0.092,17.728,0.003,17.648l4.338-0.085
					c0.125-3.5-0.476-6.557,1.396-11.343c1.125-3.597,7.065-7.513,11.496-5.807c4.154,0.531,8.123,5.032,9.125,8.395
					c1.416,3.651,1.792,7.203,2.145,10.53l-3.264,0.329l0.205-0.02l-3.265,0.329c-0.481-6.293-2.105-12.743-6.336-13.325
					c-2.199-0.47-3.087,0.107-4.458,2.595c-0.58,1.392-0.712,5.16-0.621,8.19L15.105,17.349z"/>
				<path fill="#202020" d="M53.616,50.083c0.127-0.005,1.563-6.466,0.239-13.479c-1.597-7.028-1.684-15.719-1.904-26.078
					c0.007-0.001,0.026-2.437-0.199-0.006c-1.308,9.698-5.008,19.012-6.695,25.27c-2.248,6.308-4.936,7.325-4.8,7.246l3.839,2.022
					c-1.574,4.48-8.873,4.785-11.41,1.566c-2.975-3.659-3.075-10.656-3.279-17.063l-3.278,0.104l0.206-0.01l-3.279,0.104
					c0.474,6.45-0.459,13.825,4.738,20.974c5.94,7.082,18.091,5.471,21.984-2.676L53.616,50.083z"/>
			</g>
		</g>
	</g>
</g>
</svg>

