<?xml version="1.0" encoding="utf-8"?>
<!-- Generator: Adobe Illustrator 13.0.2, SVG Export Plug-In . SVG Version: 6.00 Build 14948)  -->
<!DOCTYPE svg PUBLIC "-//W3C//DTD SVG 1.1//EN" "http://www.w3.org/Graphics/SVG/1.1/DTD/svg11.dtd">
<svg version="1.1" id="Layer_1" xmlns="http://www.w3.org/2000/svg" xmlns:xlink="http://www.w3.org/1999/xlink" x="0px" y="0px"
	 width="63.53px" height="63.252px" viewBox="0 0 63.53 63.252" enable-background="new 0 0 63.53 63.252" xml:space="preserve">
<g>
	<g>
		<polygon points="40.563,19.167 31.62,1.125 22.668,19.167 29.949,14.181 28.358,37.075 34.735,37.083 33.258,14.308 		"/>
	</g>
	<g>
		<polygon fill="none" stroke="#000000" points="40.563,19.167 31.62,1.125 22.668,19.167 29.949,14.181 28.358,37.075 
			34.735,37.083 33.258,14.308 		"/>
	</g>
</g>
<g>
	<g>
		<polygon points="33.186,48.946 34.661,26.171 28.285,26.178 29.875,49.073 22.594,44.086 31.545,62.127 40.489,44.086 		"/>
	</g>
	<g>
		<polygon fill="none" stroke="#000000" points="33.186,48.946 34.661,26.171 28.285,26.178 29.875,49.073 22.594,44.086 
			31.545,62.127 40.489,44.086 		"/>
	</g>
</g>
<g>
	<g>
		<polygon points="37.083,29.13 14.308,30.605 19.167,23.301 1.125,32.245 19.167,41.196 14.181,33.915 37.075,35.504 		"/>
	</g>
	<g>
		<polygon fill="none" stroke="#000000" points="37.083,29.13 14.308,30.605 19.167,23.301 1.125,32.245 19.167,41.196 
			14.181,33.915 37.075,35.504 		"/>
	</g>
</g>
<g>
	<g>
		<polygon points="62.405,32.465 44.362,23.521 49.223,30.825 26.447,29.35 26.455,35.725 49.348,34.135 44.362,41.417 		"/>
	</g>
	<g>
		<polygon fill="none" stroke="#000000" points="62.405,32.465 44.362,23.521 49.223,30.825 26.447,29.35 26.455,35.725 
			49.348,34.135 44.362,41.417 		"/>
	</g>
</g>
</svg>

